<?xml version="1.0" standalone="no"?>
<!DOCTYPE svg PUBLIC "-//W3C//DTD SVG 20010904//EN"
 "http://www.w3.org/TR/2001/REC-SVG-20010904/DTD/svg10.dtd">
<svg version="1.0" xmlns="http://www.w3.org/2000/svg"
 width="531.000000pt" height="531.000000pt" viewBox="0 0 531.000000 531.000000"
 preserveAspectRatio="xMidYMid meet">
<metadata>
Created by potrace 1.14, written by Peter Selinger 2001-2017
</metadata>
<g transform="translate(0.000000,531.000000) scale(0.100000,-0.100000)"
fill="#000000" stroke="none">
<path d="M2473 5062 c-17 -8 -36 -25 -43 -37 -11 -21 -3 -262 30 -850 4 -88 9
-212 9 -275 1 -63 6 -130 12 -149 6 -18 9 -53 6 -77 -5 -45 -2 -50 21 -36 8 6
11 24 8 55 -4 40 -1 49 16 58 25 13 35 5 18 -16 -10 -12 -10 -15 4 -15 18 0
21 -11 6 -26 -7 -7 -8 -19 -1 -37 8 -21 7 -26 -6 -29 -15 -3 -17 -25 -19 -188
-1 -151 2 -201 18 -275 17 -77 20 -138 23 -435 4 -385 8 -388 -45 50 -25 200
-30 230 -39 230 -11 0 -31 -192 -24 -219 4 -16 2 -22 -4 -18 -6 4 -13 -7 -17
-24 -8 -42 -6 -60 4 -29 7 23 8 23 9 -9 1 -19 -2 -31 -6 -28 -3 4 -14 -11 -24
-34 -21 -45 -112 -189 -167 -261 -32 -43 -40 -48 -74 -48 -21 0 -54 6 -72 14
l-34 14 -42 179 c-23 98 -43 184 -46 192 -2 7 39 58 93 115 54 55 134 139 178
185 114 119 53 80 -74 -48 l-106 -106 -6 80 c-5 78 -5 79 -7 19 -2 -77 -15
-89 -70 -74 -45 12 -46 13 -59 135 l-7 70 -8 -80 c-5 -44 -6 -88 -4 -98 4 -18
4 -18 -14 -2 -14 12 -17 22 -11 34 5 9 12 75 15 146 2 72 8 175 11 230 l6 100
-24 -70 c-32 -94 -48 -125 -62 -125 -22 0 -46 -49 -62 -129 -18 -92 -27 -111
-43 -95 -9 9 -19 8 -39 -2 -26 -13 -29 -20 -45 -134 -9 -66 -15 -135 -13 -153
2 -17 2 -24 0 -15 -2 10 -14 24 -25 32 -12 9 -17 19 -13 27 5 8 4 10 -3 5 -8
-4 -12 0 -12 12 0 15 -7 19 -32 18 l-33 -1 -36 -200 c-20 -110 -41 -222 -46
-250 l-8 -50 -236 1 -236 0 -5 -60 c-3 -34 -5 -81 -4 -106 l1 -45 95 0 c52 1
158 3 234 5 98 4 140 2 143 -6 8 -24 -85 -31 -260 -19 l-88 7 3 -38 c3 -32 7
-39 33 -46 17 -4 70 -5 119 -1 l89 6 -5 -60 c-4 -60 -4 -60 24 -61 15 0 28 4
28 9 0 6 -4 7 -10 4 -6 -3 -7 1 -4 9 11 29 31 15 25 -17 -1 -5 3 -6 8 -3 5 3
7 14 4 25 -3 11 2 21 11 24 9 4 16 1 16 -6 0 -8 4 -7 10 3 9 13 11 13 20 0 6
-9 10 -10 10 -3 0 6 8 12 18 12 9 0 38 1 64 1 26 0 50 5 53 11 4 5 12 6 18 2
20 -12 51 -11 67 2 9 8 39 13 80 12 55 -2 65 -5 64 -19 -1 -10 2 -16 6 -13 4
2 10 -12 13 -32 4 -23 2 -40 -5 -44 -6 -4 -87 -7 -181 -8 -94 0 -172 -3 -175
-6 -2 -2 -2 -11 2 -20 5 -14 22 -15 136 -9 l130 7 0 -42 c0 -22 1 -44 3 -48 1
-5 -18 -10 -43 -13 -71 -8 -53 -25 30 -28 43 -2 78 -8 83 -15 7 -9 10 -9 14 1
5 13 42 17 44 5 8 -67 6 -93 -9 -97 -10 -2 -63 -7 -119 -11 -116 -7 -117 -7
-112 83 3 44 2 47 -22 45 -144 -11 -149 -8 -149 83 l0 64 -76 0 c-75 0 -76 0
-87 30 -10 26 -16 30 -52 30 -22 0 -50 3 -62 6 -22 6 -22 6 -6 -34 12 -31 36
-57 97 -104 106 -82 214 -177 361 -318 108 -104 196 -180 208 -180 3 0 27 -20
53 -45 l49 -44 8 37 c9 41 -8 62 -49 62 -27 0 -34 17 -34 81 l0 50 -34 -6
c-24 -5 -48 -1 -80 14 -42 18 -46 23 -46 55 0 68 -5 66 181 66 l169 0 0 -55 0
-55 -74 0 c-79 0 -109 -6 -100 -21 3 -5 81 -9 175 -9 l169 0 0 -42 c0 -24 3
-54 7 -67 l6 -24 -89 6 c-49 3 -109 2 -134 -2 l-45 -8 57 -2 56 -1 4 -65 3
-65 -39 0 -39 0 24 -26 c19 -21 25 -23 27 -10 2 9 8 14 13 11 5 -3 76 -6 158
-6 l149 1 3 -33 c8 -69 3 -77 -52 -77 -53 0 -93 -15 -84 -31 4 -5 76 -9 166
-9 l160 0 -3 -52 -3 -53 -87 -5 c-88 -5 -105 -10 -93 -29 4 -7 74 -11 201 -11
165 0 194 2 194 15 0 18 -25 24 -120 27 l-75 3 1 40 c1 22 2 46 3 53 1 10 35
12 159 8 l157 -5 3 -25 c2 -14 6 -26 10 -26 16 1 96 80 82 81 -8 1 -51 3 -95
5 -124 5 -125 6 -125 64 l0 50 150 0 150 0 0 -25 c0 -14 4 -25 8 -25 10 0 72
63 72 74 0 4 -20 6 -45 4 -31 -2 -46 1 -50 10 -8 20 -7 22 15 22 10 0 25 10
31 23 11 19 10 20 -3 9 -12 -10 -18 -10 -27 2 -10 12 -9 14 6 11 10 -1 23 0
28 4 6 3 16 6 24 8 10 1 11 -1 2 -10 -6 -6 -11 -19 -11 -29 0 -14 7 -18 30
-16 21 2 29 6 25 16 -4 10 0 12 11 8 13 -5 15 -2 11 14 -3 11 -1 23 4 26 5 3
9 -4 9 -15 0 -12 3 -21 6 -21 4 0 34 24 67 52 33 29 55 43 49 32 -9 -18 -8
-25 7 -38 16 -15 19 -14 46 14 25 26 28 33 17 50 -7 11 -12 23 -12 27 0 16
298 311 388 385 23 19 35 39 39 64 6 37 6 37 -23 30 -16 -4 -43 -22 -61 -41
-24 -25 -38 -32 -55 -28 -17 3 -19 2 -9 -5 32 -23 -87 -130 -129 -117 -38 12
-24 43 30 66 46 20 49 23 33 35 -16 12 -15 13 14 14 26 0 34 5 39 24 3 14 3
34 -1 45 -4 14 0 24 14 33 26 16 27 25 4 31 -10 3 -3 5 15 6 17 0 32 -3 32 -9
0 -9 148 -3 159 6 10 9 -25 34 -77 55 -74 29 -76 31 -52 57 18 19 31 22 103
22 80 0 154 21 171 48 4 6 -46 12 -134 17 -77 4 -140 11 -140 16 0 5 -104 9
-232 9 -128 0 -228 4 -221 8 6 4 186 5 400 2 213 -3 396 -1 406 3 9 4 17 15
18 25 0 16 60 67 169 141 27 19 45 38 40 41 -5 3 -142 5 -305 4 -163 -1 -298
2 -301 7 -3 5 -13 9 -22 9 -13 0 -22 17 -35 64 -9 35 -17 81 -17 100 0 37 -23
106 -36 106 -3 0 -3 -15 0 -34 5 -23 3 -36 -6 -39 -10 -4 -10 -8 -1 -14 16
-12 48 -174 35 -182 -5 -3 -125 -5 -266 -3 l-256 3 0 58 0 59 72 1 c40 1 75 4
80 9 4 4 8 22 10 39 2 25 7 32 29 37 37 7 143 -5 151 -18 11 -15 10 -28 -1
-22 -5 3 -12 -2 -15 -11 -6 -15 -8 -15 -16 -3 -8 13 -10 13 -10 -1 0 -12 11
-18 38 -21 20 -3 40 -1 43 4 3 5 9 3 12 -6 4 -9 12 -16 18 -16 8 0 10 14 6 45
-4 27 -3 45 3 45 6 0 10 10 10 21 0 17 -3 19 -13 11 -11 -9 -21 18 -51 136
-38 151 -88 314 -93 308 -2 -1 21 -101 51 -222 l53 -219 -36 -8 c-42 -9 -120
0 -140 16 -11 9 -15 9 -18 0 -6 -17 -39 -17 -50 0 -37 58 -53 170 -32 224 19
50 -34 193 -72 193 -5 0 -9 -19 -9 -42 0 -23 -3 -39 -6 -35 -11 10 16 251 29
259 17 11 70 -1 85 -20 11 -14 12 -13 12 7 0 17 4 21 19 16 11 -3 22 -1 26 5
4 6 -4 10 -17 10 -14 0 -33 6 -43 14 -14 10 -27 11 -53 4 -50 -14 -58 -1 -42
66 7 30 10 69 7 86 -4 19 -1 45 8 67 29 68 15 65 -37 -8 -88 -123 -89 -126
-82 -164 3 -20 2 -41 -4 -48 -15 -19 -26 -153 -13 -161 7 -5 11 -53 11 -134 0
-86 -3 -122 -10 -112 -5 8 -10 11 -10 5 0 -5 25 -41 56 -79 66 -82 66 -84 8
-245 l-36 -100 -52 -25 c-50 -25 -61 -26 -214 -26 -89 0 -162 4 -162 8 0 5 4
33 10 63 5 30 14 106 20 169 5 63 14 162 20 220 5 58 11 129 12 158 4 79 21
84 105 28 38 -25 86 -60 107 -78 79 -66 17 13 -112 142 -190 190 -212 254
-155 456 27 94 27 96 8 110 -15 11 -16 14 -3 14 24 0 41 -27 36 -57 -3 -16
-15 -66 -28 -112 -39 -148 -20 -207 115 -346 76 -79 82 -84 53 -40 -18 28 -43
59 -55 71 -33 31 -93 134 -93 160 0 13 7 49 17 81 18 65 19 129 2 363 -9 124
-8 173 2 245 9 58 14 189 15 370 1 276 4 343 26 520 9 76 8 96 -4 126 -17 39
-67 69 -115 69 -25 -1 -23 -3 20 -22 54 -23 52 -19 36 -151 -9 -67 -17 -95
-33 -111 -12 -12 -14 -13 -6 -3 9 12 16 47 18 96 3 65 1 80 -16 101 -17 21
-29 25 -70 25 -71 0 -82 -13 -82 -100 0 -86 25 -133 80 -152 32 -11 33 -12 10
-14 -14 -1 -33 -2 -42 -1 -16 2 -18 -13 -21 -146 l-3 -147 -2 160 c-2 122 -6
166 -18 185 -14 23 -15 20 -10 -50 7 -95 23 -480 31 -762 4 -140 3 -218 -3
-218 -6 0 -12 66 -16 158 -21 559 -43 994 -52 1050 -4 27 0 38 26 63 17 18 30
33 28 34 -2 1 -17 -4 -35 -13z m163 -181 c25 -50 -35 -107 -81 -77 -34 23 -38
54 -9 83 31 31 74 28 90 -6z m54 -599 c-11 -174 -23 -363 -27 -419 -5 -91 -14
-124 -25 -93 -6 19 30 582 49 755 26 247 28 134 3 -243z m-810 -1392 c0 -5 -7
-10 -15 -10 -8 0 -15 -5 -15 -12 0 -15 -13 -1 -16 17 -1 10 6 15 22 15 13 0
24 -4 24 -10z m119 -4 c19 -7 36 -17 38 -22 5 -14 -126 -188 -144 -192 -10 -3
-13 2 -10 15 3 10 8 54 12 98 3 44 9 88 11 98 6 20 42 21 93 3z m1173 -118 c2
-36 0 -64 -4 -61 -5 2 -7 46 -6 96 1 95 5 81 10 -35z m-1295 70 c-3 -8 -6 -5
-6 6 -1 11 2 17 5 13 3 -3 4 -12 1 -19z m-7 -58 c0 -5 -3 -10 -7 -10 -5 0 -6
-25 -5 -55 3 -39 -1 -63 -12 -80 -21 -32 -44 -33 -42 -1 0 13 4 22 9 19 4 -2
7 11 7 30 0 18 3 37 7 41 4 3 8 14 9 22 4 27 13 44 24 44 5 0 10 -4 10 -10z
m97 -117 c-3 -10 -5 -2 -5 17 0 19 2 27 5 18 2 -10 2 -26 0 -35z m500 -35 c-3
-7 -5 -2 -5 12 0 14 2 19 5 13 2 -7 2 -19 0 -25z m730 -102 c-13 -28 -28 1
-16 31 5 14 10 41 11 61 1 29 3 25 7 -18 4 -30 3 -63 -2 -74z m-1214 39 c3
-41 2 -60 -3 -45 -8 25 -13 127 -6 119 2 -2 6 -35 9 -74z m-395 28 c-10 -2
-26 -2 -35 0 -10 3 -2 5 17 5 19 0 27 -2 18 -5z m219 -19 c-3 -3 -12 -4 -19
-1 -8 3 -5 6 6 6 11 1 17 -2 13 -5z m1713 -44 c0 -5 -2 -10 -4 -10 -3 0 -8 5
-11 10 -3 6 -1 10 4 10 6 0 11 -4 11 -10z m-1602 -72 c-3 -7 -15 -15 -27 -16
-20 -3 -22 -2 -10 12 17 18 42 21 37 4z m-388 -86 c0 -33 -4 -51 -10 -47 -5 3
-10 34 -10 68 0 44 3 58 10 47 5 -8 10 -39 10 -68z m493 24 l36 -54 -80 -1
c-45 0 -85 -3 -90 -7 -5 -3 -9 -1 -9 3 0 11 90 113 99 113 5 0 24 -24 44 -54z
m67 -203 c0 -47 6 -85 15 -103 l16 -30 -38 1 c-21 0 -81 6 -133 12 l-95 13 0
77 c0 89 5 95 73 95 24 0 45 2 47 4 2 2 29 4 59 4 l56 1 0 -74z m-285 2 c-5
-46 -3 -70 5 -80 19 -23 -10 -29 -103 -21 -45 3 -115 6 -154 6 -52 0 -73 4
-73 13 0 8 17 12 55 11 37 -2 55 2 55 10 0 6 9 19 20 29 12 10 18 23 14 29 -4
6 -3 8 4 4 6 -3 14 -1 18 5 5 8 9 8 14 -1 5 -9 9 -9 14 -1 4 6 0 14 -8 17 -22
8 -20 21 3 27 15 3 18 1 14 -12 -4 -15 -4 -15 9 0 15 19 38 26 87 28 l33 1 -7
-65z m500 51 c11 -1 31 -7 44 -15 14 -8 21 -8 17 -2 -9 14 -3 14 28 0 14 -7
23 -16 20 -20 -3 -5 2 -9 11 -9 9 0 13 -4 10 -10 -3 -5 1 -10 10 -10 11 0 15
-5 12 -15 -4 -8 -2 -17 4 -20 5 -4 7 -12 3 -18 -3 -7 1 -4 9 6 14 17 15 17 19
-1 5 -17 20 -19 149 -25 79 -4 186 -7 237 -7 91 0 104 -4 80 -28 -18 -18 -812
-17 -825 1 -9 11 -10 49 -5 144 2 38 16 44 97 36 33 -3 69 -6 80 -7z m-735
-106 c0 -5 -2 -10 -4 -10 -3 0 -8 5 -11 10 -3 6 -1 10 4 10 6 0 11 -4 11 -10z
m1705 -60 c-17 -18 -31 -20 -162 -20 -141 0 -143 0 -133 20 10 19 21 20 162
20 150 0 151 0 133 -20z m-38 -172 c-2 -13 -4 -3 -4 22 0 25 2 35 4 23 2 -13
2 -33 0 -45z m-1157 -117 c0 -35 -4 -51 -16 -55 -23 -9 -262 -7 -267 2 -2 4
-2 26 1 49 4 41 5 42 46 46 22 2 85 4 139 5 l97 2 0 -49z m1043 -50 c-1 -1 -6
0 -12 4 -12 7 -15 78 -3 89 6 7 21 -82 15 -93z m-893 -96 l0 -55 -132 0 c-174
0 -178 1 -178 54 0 24 3 46 7 49 3 4 73 7 155 7 l148 0 0 -55z m740 -6 c0 -27
-4 -49 -10 -49 -5 0 -10 25 -10 56 0 34 4 53 10 49 6 -3 10 -28 10 -56z m584
-53 c-3 -7 -28 -23 -57 -37 -42 -19 -53 -30 -58 -54 -6 -27 -7 -26 -8 12 0 23
3 44 8 47 5 3 7 15 4 25 -4 18 1 20 48 23 63 4 70 2 63 -16z m-710 -58 c3 -13
6 -33 6 -45 0 -21 5 -23 48 -24 131 -2 224 -8 230 -13 3 -4 -64 -5 -149 -4
l-154 3 -3 53 c-3 52 11 71 22 30z m581 -83 c0 -5 -18 -12 -40 -15 -23 -3 -58
-19 -78 -34 l-37 -28 0 26 c0 14 5 26 10 26 6 0 10 5 10 10 0 6 -30 11 -67 12
-58 2 -52 3 37 8 134 8 165 7 165 -5z m-722 -49 c3 -8 15 -20 26 -26 18 -9 20
-8 15 7 -4 12 0 9 11 -6 17 -22 19 -23 31 -6 8 11 21 16 34 12 13 -3 18 -1 14
6 -3 7 1 4 9 -5 8 -10 17 -15 20 -12 3 3 10 -3 16 -14 6 -11 7 -22 4 -26 -6
-6 27 -11 57 -8 37 4 141 -11 129 -19 -15 -9 -412 -5 -428 5 -12 8 -15 88 -4
99 12 13 61 7 66 -7z m426 -62 c1 -23 36 -33 99 -29 20 1 31 -2 29 -9 -4 -13
-4 -13 -84 -3 l-63 8 1 47 c0 35 3 42 9 27 5 -11 9 -30 9 -41z m-501 -73 l262
-1 -5 -23 c-5 -17 -2 -24 8 -24 8 0 13 6 10 13 -2 6 0 15 6 19 6 3 11 3 12 -2
0 -4 2 -27 5 -51 l5 -42 -343 2 -343 3 -3 34 c-2 19 -1 44 2 57 6 22 10 24 64
20 31 -2 175 -4 320 -5z m362 -11 c0 -5 5 -10 11 -10 5 0 8 4 5 9 -4 5 3 7 14
4 11 -3 20 -10 20 -15 0 -5 4 -7 9 -4 5 3 14 0 20 -8 8 -10 6 -17 -9 -31 -11
-10 -23 -15 -27 -12 -3 4 -1 7 6 7 18 0 -3 33 -23 36 -9 1 -14 -2 -10 -7 3 -5
10 -7 15 -4 12 8 11 -2 -1 -26 -8 -14 -7 -19 2 -19 9 0 9 -3 1 -11 -6 -6 -21
-9 -34 -7 -22 3 -24 8 -25 56 -1 38 2 52 12 52 8 0 14 -4 14 -10z m77 -86 c-3
-3 -12 -4 -19 -1 -8 3 -5 6 6 6 11 1 17 -2 13 -5z m-403 -51 l107 -6 -3 -51
-3 -51 -95 -3 c-52 -2 -128 0 -167 3 l-73 7 0 54 0 54 63 0 c35 0 112 -3 171
-7z"/>
<path d="M1630 2170 c0 -5 5 -10 10 -10 6 0 10 5 10 10 0 6 -4 10 -10 10 -5 0
-10 -4 -10 -10z"/>
<path d="M2340 2109 c0 -5 5 -7 10 -4 6 3 10 8 10 11 0 2 -4 4 -10 4 -5 0 -10
-5 -10 -11z"/>
<path d="M3051 1214 c0 -11 3 -14 6 -6 3 7 2 16 -1 19 -3 4 -6 -2 -5 -13z"/>
<path d="M3062 4007 c-47 -48 -50 -57 -24 -80 16 -15 20 -15 40 -1 21 14 21
14 19 -23 -2 -37 -1 -38 31 -37 34 2 39 -5 20 -24 -9 -9 -1 -22 33 -57 24 -25
51 -45 60 -45 20 0 49 -31 49 -52 0 -21 38 -54 49 -42 5 5 19 37 31 72 l23 63
-29 30 -30 29 -58 -20 c-33 -11 -64 -20 -70 -20 -5 0 10 20 34 45 l44 45 -29
30 c-16 17 -35 28 -43 25 -8 -3 -24 -8 -37 -11 -23 -6 -23 -5 -13 30 10 32 9
39 -12 61 -13 14 -29 25 -35 25 -6 0 -30 -19 -53 -43z m258 -247 c0 -5 -5 -10
-11 -10 -5 0 -7 5 -4 10 3 6 8 10 11 10 2 0 4 -4 4 -10z"/>
<path d="M1985 3990 l-29 -30 24 -71 c14 -39 29 -73 33 -76 12 -7 34 16 55 58
10 20 26 35 38 37 12 2 31 13 43 26 17 18 19 25 9 33 -12 9 -127 53 -139 53
-3 0 -18 -14 -34 -30z"/>
<path d="M1912 3917 c-12 -13 -22 -35 -22 -50 0 -23 -4 -27 -28 -27 -27 0 -72
-35 -72 -56 0 -5 -16 -18 -35 -28 -40 -22 -75 -72 -75 -106 0 -19 -2 -21 -16
-9 -13 11 -28 0 -111 -84 l-96 -98 24 -26 24 -26 -45 7 c-41 6 -49 4 -70 -19
-21 -22 -22 -29 -12 -45 11 -18 9 -20 -15 -20 -56 0 -123 -67 -123 -123 0 -25
-2 -26 -20 -15 -17 11 -24 9 -50 -18 -28 -27 -30 -32 -19 -62 14 -41 10 -45
-30 -31 -29 10 -35 9 -62 -17 -16 -15 -29 -33 -29 -39 0 -6 22 -33 50 -60 l50
-49 25 24 c23 21 24 25 11 45 -14 21 -13 22 22 21 36 -1 37 0 36 36 -1 36 0
37 19 23 19 -13 23 -13 44 7 17 16 20 25 12 39 -8 16 -6 19 17 19 52 0 124 76
124 131 0 18 2 19 15 9 13 -11 20 -9 40 10 l25 24 -22 24 -23 24 43 -3 c35 -3
47 1 69 24 l27 27 -34 35 c-33 34 -33 35 -15 55 24 27 33 25 70 -10 l31 -30
24 25 24 25 -34 35 c-33 34 -33 35 -15 54 17 20 18 20 43 1 13 -11 34 -20 46
-20 50 0 126 75 126 125 0 11 -7 31 -16 43 -9 13 -14 26 -11 29 9 9 65 -8 78
-23 10 -13 15 -12 36 7 26 26 29 42 9 58 -7 6 -17 38 -20 71 -4 33 -10 60 -15
60 -4 0 -17 -10 -29 -23z m-102 -235 c0 -21 -18 -42 -37 -42 -20 0 -27 28 -13
45 18 21 50 19 50 -3z m-444 -437 c7 -18 -13 -45 -33 -45 -19 0 -28 27 -13 45
16 19 39 19 46 0z"/>
<path d="M3411 3711 c-7 -5 -13 -21 -13 -35 0 -20 -4 -24 -13 -16 -15 13 -25
3 -25 -27 0 -28 64 -101 96 -109 28 -7 54 11 54 37 0 11 6 18 13 17 7 -2 13 9
15 25 6 54 -86 133 -127 108z"/>
<path d="M2434 3594 c-4 -15 2 -51 15 -90 14 -43 21 -90 21 -142 0 -73 -2 -79
-35 -121 -19 -24 -35 -48 -35 -54 0 -17 41 26 68 73 22 37 26 57 26 115 0 40
-8 92 -18 122 -9 29 -18 68 -19 88 -2 41 -14 46 -23 9z"/>
<path d="M3525 3545 c-30 -29 -32 -60 -6 -99 42 -64 111 -84 149 -43 39 41 19
106 -44 148 -39 26 -70 24 -99 -6z m93 -73 c3 -20 0 -23 -20 -20 -15 2 -24 11
-26 26 -3 20 0 23 20 20 15 -2 24 -11 26 -26z"/>
<path d="M3673 3394 c-24 -26 -43 -50 -43 -54 0 -4 9 -15 20 -25 20 -18 21
-18 46 6 l27 24 -7 -45 c-6 -44 -5 -46 42 -93 35 -34 56 -47 73 -45 20 3 24
-2 25 -25 1 -26 28 -67 46 -67 4 0 8 9 8 20 0 13 7 20 18 20 30 0 55 25 55 54
0 22 -19 46 -79 107 -44 43 -83 79 -88 79 -6 0 -20 -9 -32 -21 l-22 -21 9 43
c9 37 7 45 -12 65 -13 13 -27 24 -33 24 -5 0 -29 -21 -53 -46z m237 -206 c0
-6 -7 -5 -15 2 -8 7 -15 17 -15 22 0 6 7 5 15 -2 8 -7 15 -17 15 -22z"/>
<path d="M2011 3184 c0 -11 3 -14 6 -6 3 7 2 16 -1 19 -3 4 -6 -2 -5 -13z"/>
<path d="M3350 3180 c0 -5 5 -10 10 -10 6 0 10 5 10 10 0 6 -4 10 -10 10 -5 0
-10 -4 -10 -10z"/>
<path d="M3997 3163 c-2 -4 -8 -30 -12 -57 -4 -27 -13 -59 -21 -71 -13 -19
-12 -24 6 -40 17 -16 25 -17 40 -8 10 7 41 15 69 19 28 4 54 11 57 16 10 16
-28 48 -58 48 -24 0 -28 4 -28 28 0 28 -43 82 -53 65z"/>
<path d="M3292 3115 c0 -16 2 -22 5 -12 2 9 2 23 0 30 -3 6 -5 -1 -5 -18z"/>
<path d="M2369 3103 c-13 -14 -18 -23 -11 -19 8 5 23 -1 38 -15 32 -30 38 -21
15 24 l-18 36 -24 -26z"/>
<path d="M2922 2959 c23 -28 51 -61 60 -73 10 -11 18 -17 18 -12 0 12 -103
135 -113 135 -5 1 11 -22 35 -50z"/>
<path d="M3520 2961 c0 -22 5 -43 10 -46 6 -4 10 10 10 34 0 22 -4 43 -10 46
-6 4 -10 -10 -10 -34z"/>
<path d="M3312 2865 c0 -16 2 -22 5 -12 2 9 2 23 0 30 -3 6 -5 -1 -5 -18z"/>
<path d="M3323 2770 c0 -25 2 -35 4 -22 2 12 2 32 0 45 -2 12 -4 2 -4 -23z"/>
<path d="M3612 2598 c-7 -7 -12 -23 -12 -37 1 -24 2 -24 16 8 16 37 14 47 -4
29z"/>
<path d="M3445 2520 c3 -5 8 -10 11 -10 2 0 4 5 4 10 0 6 -5 10 -11 10 -5 0
-7 -4 -4 -10z"/>
<path d="M3407 2487 c-5 -12 -1 -17 13 -17 11 0 20 5 20 11 0 5 -4 8 -9 5 -5
-4 -11 -1 -13 6 -3 8 -7 6 -11 -5z"/>
<path d="M1441 1904 c0 -11 3 -14 6 -6 3 7 2 16 -1 19 -3 4 -6 -2 -5 -13z"/>
<path d="M2540 705 c0 -31 152 -34 158 -2 3 15 -6 17 -77 17 -64 0 -81 -3 -81
-15z"/>
<path d="M994 490 c-59 -24 -72 -104 -25 -151 26 -26 36 -29 94 -29 71 0 117
24 117 61 0 15 -7 19 -39 19 -22 0 -43 -4 -46 -10 -9 -14 -48 -13 -63 2 -19
19 -14 37 13 50 19 9 29 8 50 -6 37 -24 80 -16 80 15 0 45 -114 76 -181 49z"/>
<path d="M1253 485 c-57 -25 -71 -93 -29 -142 21 -25 32 -28 97 -31 64 -3 78
-1 101 17 56 44 42 137 -23 160 -43 15 -107 13 -146 -4z m101 -58 c10 -7 16
-22 14 -33 -2 -14 -12 -19 -38 -19 -30 0 -35 3 -38 27 -3 25 2 29 39 37 3 0
13 -5 23 -12z"/>
<path d="M1473 484 c-2 -6 -3 -46 -1 -90 l3 -79 37 -3 37 -3 3 48 3 48 34 -47
c32 -44 38 -48 78 -48 l43 0 0 96 0 95 -37 -3 c-38 -3 -38 -3 -41 -52 l-3 -49
-35 51 c-32 48 -36 51 -75 49 -23 -1 -43 -6 -46 -13z"/>
<path d="M1730 465 c0 -33 2 -35 35 -35 l34 0 3 -57 c3 -58 3 -58 37 -61 42
-4 51 8 51 71 l0 47 35 0 c33 0 35 2 35 35 l0 35 -115 0 -115 0 0 -35z"/>
<path d="M1988 494 c-5 -4 -8 -47 -8 -96 l0 -88 40 0 c36 0 40 3 40 25 0 18 5
25 19 25 11 0 28 -11 39 -25 15 -19 29 -25 61 -25 44 0 51 12 25 41 -14 16
-14 19 6 39 24 24 21 62 -6 90 -16 16 -202 28 -216 14z m142 -64 c11 -7 3 -10
-28 -10 -26 0 -41 4 -37 10 8 13 45 13 65 0z"/>
<path d="M2280 418 c-22 -45 -40 -88 -40 -95 0 -17 50 -17 85 1 28 15 72 12
90 -5 5 -5 24 -9 42 -9 43 0 43 14 -4 112 l-36 78 -49 0 -49 0 -39 -82z m100
-19 c0 -5 -7 -9 -15 -9 -9 0 -12 6 -9 15 6 15 24 11 24 -6z"/>
<path d="M2544 486 c-56 -25 -69 -110 -23 -152 21 -19 111 -31 153 -20 29 7
66 43 66 63 0 16 -81 18 -97 2 -17 -17 -63 -2 -63 20 0 35 26 46 68 28 41 -18
83 -18 89 -1 2 7 -7 24 -20 40 -20 23 -33 28 -83 31 -36 2 -71 -2 -90 -11z"/>
<path d="M2754 486 c-13 -33 0 -51 39 -54 l37 -3 0 -60 0 -59 40 0 40 0 0 60
0 60 41 0 c39 0 40 1 37 33 l-3 32 -113 3 c-92 2 -113 0 -118 -12z"/>
<path d="M3060 493 c-51 -20 -76 -70 -59 -120 14 -44 53 -63 128 -63 49 0 65
4 90 26 40 33 43 89 7 130 -20 24 -32 28 -87 31 -35 1 -71 0 -79 -4z m96 -67
c26 -20 7 -51 -31 -51 -38 0 -57 31 -31 51 11 8 25 14 31 14 6 0 20 -6 31 -14z"/>
<path d="M3278 494 c-5 -4 -8 -47 -8 -96 l0 -88 40 0 c36 0 40 3 40 25 0 18 5
25 19 25 11 0 28 -11 39 -25 15 -19 29 -25 61 -25 44 0 51 12 25 41 -14 16
-14 19 6 39 24 24 21 62 -6 90 -16 16 -202 28 -216 14z m142 -64 c11 -7 3 -10
-28 -10 -26 0 -41 4 -37 10 8 13 45 13 65 0z"/>
<path d="M3640 405 l0 -96 98 3 c96 3 97 3 97 28 0 23 -4 25 -55 30 l-55 5 -5
60 -5 60 -37 3 -38 3 0 -96z"/>
<path d="M3850 405 l0 -96 98 3 c96 3 97 3 97 28 0 23 -4 25 -55 30 l-55 5 -5
60 -5 60 -37 3 -38 3 0 -96z"/>
<path d="M4115 491 c-71 -29 -80 -133 -14 -166 36 -19 122 -19 158 0 26 13 41
33 41 56 0 12 -77 12 -85 -1 -9 -14 -48 -13 -63 2 -19 19 -14 37 12 49 18 9
29 8 47 -4 26 -16 76 -20 85 -6 11 19 -9 51 -42 65 -36 15 -107 18 -139 5z"/>
</g>
</svg>
